<svg xmlns="http://www.w3.org/2000/svg" viewBox="2.1500000953674316 13.0600004196167 27.489999771118164 28.56999969482422" data-asc="0.83251953125" width="27.489999771118164" height="28.56999969482422"><defs/><g fill="#5e2bf0"><g transform="translate(0, 0)"><path d="M8.33 28.88L8.33 39.58L12.11 39.58Q12.87 39.58 13.18 39.86Q13.50 40.14 13.50 40.60Q13.50 41.04 13.18 41.33Q12.87 41.63 12.11 41.63L3.52 41.63Q2.78 41.63 2.47 41.33Q2.15 41.04 2.15 40.60Q2.15 40.14 2.47 39.86Q2.78 39.58 3.52 39.58L6.27 39.58L6.27 15.11L3.52 15.11Q2.78 15.11 2.47 14.83Q2.15 14.55 2.15 14.09Q2.15 13.62 2.47 13.34Q2.78 13.06 3.52 13.06L15.92 13.06Q19.75 13.06 22.38 15.49Q25 17.92 25 20.97Q25 23.17 23.38 25.11Q21.75 27.05 17.94 28.34Q20.14 29.86 21.70 31.76Q23.27 33.67 26.71 39.58L28.27 39.58Q29.00 39.58 29.32 39.86Q29.64 40.14 29.64 40.60Q29.64 41.04 29.32 41.33Q29.00 41.63 28.27 41.63L25.54 41.63Q21.73 34.81 19.64 32.50Q17.55 30.18 14.84 28.88L8.33 28.88M8.33 26.83L13.92 26.83Q16.60 26.83 18.79 25.85Q20.97 24.88 21.96 23.56Q22.95 22.24 22.95 20.87Q22.95 18.82 20.89 16.97Q18.82 15.11 15.87 15.11L8.33 15.11L8.33 26.83Z"/></g></g></svg>